# Blender v2.91.2 OBJ File: 'Minecart.blend'
# www.blender.org
mtllib Body.mtl
o Cube.009_Cube.012
v -12.500000 4.750000 6.000000
v -12.500000 6.250000 6.000000
v -12.500000 4.750000 -6.000000
v -12.500000 6.250000 -6.000000
v 12.500000 4.750000 6.000000
v 12.500000 6.250000 6.000000
v 12.500000 4.750000 -6.000000
v 12.500000 6.250000 -6.000000
vt 0.375000 0.000000
vt 0.625000 0.000000
vt 0.625000 0.250000
vt 0.375000 0.250000
vt 0.625000 0.500000
vt 0.375000 0.500000
vt 0.625000 0.750000
vt 0.375000 0.750000
vt 0.625000 1.000000
vt 0.375000 1.000000
vt 0.125000 0.500000
vt 0.125000 0.750000
vt 0.875000 0.500000
vt 0.875000 0.750000
vn -1.0000 0.0000 0.0000
vn 0.0000 0.0000 -1.0000
vn 1.0000 0.0000 0.0000
vn 0.0000 0.0000 1.0000
vn 0.0000 -1.0000 0.0000
vn 0.0000 1.0000 0.0000
usemtl None
s off
f 1/1/1 2/2/1 4/3/1 3/4/1
f 3/4/2 4/3/2 8/5/2 7/6/2
f 7/6/3 8/5/3 6/7/3 5/8/3
f 5/8/4 6/7/4 2/9/4 1/10/4
f 3/11/5 7/6/5 5/8/5 1/12/5
f 8/5/6 4/13/6 2/14/6 6/7/6
o Cube.010_Cube.013
v -11.250000 7.250000 5.400000
v -11.250000 7.250000 -5.400000
v 11.250000 7.250000 5.400000
v 11.250000 7.250000 -5.400000
v -12.748760 7.245037 4.975935
v -14.751241 15.254963 6.513841
v -12.748760 7.245037 -4.975935
v -14.751241 15.254963 -6.513841
v 10.234701 7.237441 6.189589
v 12.240982 15.262560 7.730412
v 12.748760 7.245037 -4.975935
v 14.751241 15.254963 -6.513841
v -13.500001 16.250000 7.128000
v -13.500001 16.250000 -7.128000
v 13.500001 16.250000 -7.128000
v 13.500001 16.250000 7.128000
v -10.234701 7.237441 -6.189589
v -10.234701 7.237441 6.189589
v -12.240982 15.262560 7.730412
v -12.240982 15.262560 -7.730412
v -12.506225 7.305671 -4.975935
v -12.506225 7.305671 4.975935
v -14.508705 15.315597 6.513841
v -14.508705 15.315597 -6.513841
v -12.500000 6.250000 6.000000
v -15.000001 16.250000 7.920001
v 14.751241 15.254963 6.513841
v 12.748760 7.245037 4.975935
v -10.234701 7.284579 5.944073
v -12.240982 15.309698 7.484897
v 12.240982 15.309698 7.484897
v 10.234701 7.284579 5.944073
v 12.240982 15.262560 -7.730412
v 10.234701 7.237441 -6.189589
v 12.500000 6.250000 6.000000
v 15.000001 16.250000 7.920001
v 14.508705 15.315597 -6.513841
v 12.506225 7.305671 -4.975935
v 12.506225 7.305671 4.975935
v 14.508705 15.315597 6.513841
v -15.000001 16.250000 -7.920001
v -12.500000 6.250000 -6.000000
v 12.500000 6.250000 -6.000000
v 15.000001 16.250000 -7.920001
v -12.240982 15.309698 -7.484897
v -10.234701 7.284579 -5.944073
v 10.234701 7.284579 -5.944073
v 12.240982 15.309698 -7.484897
vt 0.600124 0.229802
vt 0.399876 0.226431
vt 0.399876 0.226431
vt 0.600124 0.229802
vt 0.600314 0.478307
vt 0.399686 0.475947
vt 0.399686 0.475947
vt 0.600314 0.478307
vt 0.600124 0.520198
vt 0.600124 0.729802
vt 0.600124 0.729802
vt 0.600124 0.520198
vt 0.399686 0.975947
vt 0.399686 0.774053
vt 0.399686 0.774053
vt 0.399686 0.975947
vt 0.125000 0.500000
vt 0.375000 0.500000
vt 0.375000 0.750000
vt 0.125000 0.750000
vt 0.375000 0.000000
vt 0.375000 0.250000
vt 0.625000 0.250000
vt 0.625000 0.000000
vt 0.375000 0.500000
vt 0.625000 0.500000
vt 0.375000 0.750000
vt 0.625000 0.750000
vt 0.375000 1.000000
vt 0.625000 1.000000
vt 0.125000 0.500000
vt 0.125000 0.750000
vt 0.862500 0.737500
vt 0.875000 0.750000
vt 0.625000 0.750000
vt 0.625000 0.500000
vt 0.875000 0.500000
vt 0.862500 0.512500
vt 0.637500 0.512500
vt 0.637500 0.737500
vt 0.399876 0.023569
vt 0.375000 0.250000
vt 0.375000 0.000000
vt 0.600124 0.020198
vt 0.625000 0.000000
vt 0.625000 0.250000
vt 0.399876 0.023569
vt 0.600124 0.020198
vt 0.600314 0.978307
vt 0.625000 1.000000
vt 0.375000 1.000000
vt 0.600314 0.771693
vt 0.600314 0.771693
vt 0.600314 0.978307
vt 0.399876 0.523569
vt 0.399876 0.726431
vt 0.399876 0.523569
vt 0.399876 0.726431
vt 0.600314 0.271693
vt 0.399686 0.274053
vt 0.399686 0.274053
vt 0.600314 0.271693
vn -0.0444 0.1776 0.9831
vn -0.9712 0.2342 -0.0450
vn -0.2425 -0.9701 0.0000
vn 0.0000 0.9821 0.1886
vn 0.0000 -1.0000 0.0000
vn 0.9701 0.2425 0.0000
vn 0.0000 0.1886 0.9821
vn -0.9701 0.2425 0.0000
vn 0.0000 0.1886 -0.9821
vn 0.0000 1.0000 0.0000
vn -0.9701 -0.2425 0.0000
vn -0.0444 0.1776 -0.9831
vn 0.2425 -0.9701 0.0000
vn -0.2425 0.9701 0.0000
vn 0.0000 -0.1886 0.9821
vn 0.9712 0.2342 0.0450
vn 0.0000 -0.9821 -0.1886
vn -0.9712 0.2342 0.0450
vn 0.9701 -0.2425 0.0000
vn 0.0444 0.1777 0.9831
vn 0.0444 0.1776 -0.9831
vn 0.2425 0.9701 0.0000
vn -0.0000 -0.1886 -0.9821
vn 0.0000 0.9821 -0.1886
vn 0.0000 -0.9821 0.1886
vn 0.9712 0.2342 -0.0450
usemtl None
s off
f 16/15/7 15/16/7 29/17/7 32/18/7
f 41/19/8 42/20/8 55/21/8 56/22/8
f 20/23/9 35/24/9 48/25/9 45/26/9
f 26/27/10 17/28/10 40/29/10 37/30/10
f 50/31/11 51/32/11 43/33/11 33/34/11
f 9/35/12 10/36/12 22/37/12 21/38/12
f 22/37/13 10/36/13 12/39/13 23/40/13
f 23/40/14 12/39/14 11/41/14 24/42/14
f 24/42/15 11/41/15 9/43/15 21/44/15
f 10/45/16 9/46/16 11/41/16 12/39/16
f 21/47/16 34/48/16 44/49/16 52/50/16 49/51/16 22/52/16 23/53/16 24/54/16
f 49/51/16 34/48/16 21/47/16 22/52/16
f 13/55/17 15/16/17 50/56/17 33/57/17
f 14/58/17 13/55/17 33/57/17 34/59/17
f 16/15/17 14/58/17 34/59/17 49/60/17
f 15/16/17 16/15/17 49/60/17 50/56/17
f 30/61/17 31/62/17 32/18/17 29/17/17
f 13/55/18 14/58/18 31/62/18 30/61/18
f 14/58/19 16/15/19 32/18/19 31/62/19
f 15/16/20 13/55/20 30/61/20 29/17/20
f 26/27/21 27/63/21 34/64/21 33/65/21
f 18/66/21 17/28/21 43/33/21 44/49/21
f 17/28/21 26/27/21 33/65/21 43/33/21
f 27/63/21 18/66/21 44/49/21 34/64/21
f 40/29/21 39/67/21 38/68/21 37/30/21
f 27/63/22 26/27/22 37/30/22 38/68/22
f 18/66/23 27/63/23 38/68/23 39/67/23
f 17/28/24 18/66/24 39/67/24 40/29/24
f 20/23/25 19/69/25 51/32/25 52/50/25
f 19/69/25 36/70/25 43/33/25 51/32/25
f 35/24/25 20/23/25 52/50/25 44/49/25
f 36/70/25 35/24/25 44/49/25 43/33/25
f 46/71/25 45/26/25 48/25/25 47/72/25
f 19/69/26 20/23/26 45/26/26 46/71/26
f 35/24/27 36/70/27 47/72/27 48/25/27
f 36/70/28 19/69/28 46/71/28 47/72/28
f 28/73/29 25/74/29 50/56/29 49/60/29
f 25/74/29 42/20/29 51/32/29 50/56/29
f 41/19/29 28/73/29 49/60/29 52/50/29
f 42/20/29 41/19/29 52/50/29 51/32/29
f 54/75/29 53/76/29 56/22/29 55/21/29
f 42/20/30 25/74/30 54/75/30 55/21/30
f 28/73/31 41/19/31 56/22/31 53/76/31
f 25/74/32 28/73/32 53/76/32 54/75/32
